<?xml version="1.0" encoding="utf-8"?>
<!-- Generator: Adobe Illustrator 25.0.1, SVG Export Plug-In . SVG Version: 6.00 Build 0)  -->
<svg version="1.1" id="Layer_1" xmlns="http://www.w3.org/2000/svg" xmlns:xlink="http://www.w3.org/1999/xlink" x="0px" y="0px"
	 viewBox="0 0 234.69 391" style="enable-background:new 0 0 234.69 391;" xml:space="preserve">
<style type="text/css">
	.st0{fill:#FBC6A4;}
	.st1{fill:#EEAD86;}
	.st2{fill:#9BCA3B;}
	.st3{fill:#638038;}
	.st4{fill:#DEDEDD;}
	.st5{fill:#EE3E23;}
	.st6{fill:#A87C4F;}
	.st7{fill:#825930;}
	.st8{fill:#422C29;}
	.st9{fill:#D48565;}
	.st10{fill:#F26E54;}
	.st11{fill:#744431;}
	.st12{fill:#CE7754;}
</style>
<g>
	<g>
		<g>
			<g>
				<g>
					<g>
						<path class="st0" d="M163.81,200.06c0,0,29.27,2.64,49.37-29.9c-4.95-0.32-10.06-2.38-9.88-4.11
							c0.21-1.97,5.72-1.45,8.06-1.08c-3.15-5.5-5.23-14.74-1.85-15.42c2.57-0.52,4.65,7.69,5.42,10.38
							c0.12-6.48-1.04-12.42,2.37-12.13c2.52,0.21,2.7,5.97,2.32,11.71c1.39-5.94,2.62-11.45,5.1-10.36
							c1.59,0.7,1.9,6.15-0.69,11.43c2.28-2.69,5.14-6.58,6.55-5.58c1.27,0.9,0.71,4.93-7.18,15.28
							c-13.96,36.04-45.04,43.93-60.13,38.74C163.19,203.56,163.81,200.06,163.81,200.06z"/>
					</g>
				</g>
			</g>
		</g>
		<g>
			<g>
				<g>
					<g>
						<path class="st0" d="M128.4,185.06c0,0-5.57-1.2-10.94-3.16c-0.16-5.61,1.34-11.77,1.34-11.77l-10.16-1.69
							c0,0-1.39,9.08-1.5,12.75c-7.55,1.44-13.85,2.03-13.85,2.03s-4.04,18.24,15.41,20.47
							C115.51,204.47,126.23,197.71,128.4,185.06z"/>
					</g>
				</g>
			</g>
			<path class="st1" d="M108.99,170.79l7.92,0.85c0,0-0.65,9.4-0.8,12.02c-2.31-3.01-6.18-3.8-7.66-0.96
				C108.72,177.48,108.99,170.79,108.99,170.79z"/>
		</g>
		<g>
			<g>
				<g>
					<g>
						<path class="st0" d="M70.67,193.34c0,0-29.27,2.64-49.37-29.9c4.95-0.32,10.06-2.38,9.88-4.11c-0.21-1.97-5.72-1.45-8.06-1.08
							c3.15-5.5,5.23-14.74,1.85-15.42c-2.57-0.52-4.65,7.69-5.42,10.38c-0.12-6.48,1.04-12.42-2.37-12.13
							c-2.52,0.21-2.7,5.97-2.32,11.71c-1.39-5.94-2.62-11.45-5.1-10.36c-1.59,0.7-1.9,6.15,0.69,11.43
							c-2.28-2.69-5.14-6.58-6.55-5.58c-1.27,0.9-0.71,4.93,7.18,15.28c13.96,36.04,45.04,43.93,60.13,38.74
							C71.29,196.84,70.67,193.34,70.67,193.34z"/>
					</g>
				</g>
			</g>
		</g>
		<g>
			<g>
				<path class="st2" d="M93.97,183.23c-11.14,28.46,23.44,25.71,37.35,1.96c4.13,0.09,24.08,8.57,38.06,10.14
					c0.8,4.87-0.17,9.82-6.06,24.15c-0.54-0.06-17.33-1.88-18.05-1.2c-1.67,13.92-1.69,33.93-2.37,47.08c0,0-25.07,6.81-64.77,0.77
					c-0.01,0,1.49-43.02,0.13-55.28c2.17-0.54-17.86-2.31-18.64-2.92c-2.12-1.64-4.42-17.86-1.55-23.09
					C58.42,184.21,77.55,183.54,93.97,183.23z"/>
				<path class="st3" d="M97.22,182.29c-1.16,8.26,2.22,14.09,10.75,15.41c10.89,1.68,16.79-5.3,17.88-14.29
					c2.87,0.92,7.98,1.52,7.98,1.52s-0.95,21.23-24.88,21c-22.74-0.21-19.61-23.16-19.61-23.16L97.22,182.29z"/>
			</g>
			<path class="st3" d="M52.91,183.55c-0.71,16.62-0.72,16.6,2.02,26.22c2.7,0.22,6.93-0.58,6.93-0.58
				c-1.54-4.26-2.78-13.79-1.32-25.92C57.28,183.2,52.91,183.55,52.91,183.55z"/>
		</g>
		<g>
			<path class="st0" d="M94.61,301.55c0,0,0,35.12,0,65.58c5.29,1.63,8.93-4.48,8.93-4.48s0-31.19,0-60.78
				C101.63,296.63,94.61,301.55,94.61,301.55z"/>
			<g>
				<g>
					<path class="st4" d="M104.35,371.58c0.94,2.38,0.7,6.9-4.94,11.28c-5.64,4.38-11.99,7.26-20.03,4.1
						c-6.77-2.66-2.23-10.01-2.23-10.01L104.35,371.58z"/>
					<path class="st5" d="M104.02,361.63c1.59,1.75,2.12,10.58-2.15,13.98c-4.25,3.4-11.86,9.58-21.58,6.41
						c-7.62-2.48-2.17-8.79,2.03-11.19c4.19-2.41,12.3-9.27,12.3-9.27S95.59,365.94,104.02,361.63z"/>
					<path class="st4" d="M100.35,363.12c0.51-0.36,2.02-4.27,1.31-5.58c-1.34-2.46-9.17-2.54-9.54-1.19
						c-0.63,2.32,1.39,5.93,1.39,5.93S96.69,364.87,100.35,363.12z"/>
				</g>
				<path class="st4" d="M90.92,363.86c3.09-0.77,7.27,0.9,8.65,3.1c1.37,2.2-0.49,3.81-1.75,3.65c-1.27-0.16-4.88-2.09-9.03-2.81
					C84.64,367.1,88.44,364.46,90.92,363.86z"/>
				<path class="st4" d="M85.16,368.39c3.09-0.77,7.27,0.9,8.65,3.1c1.36,2.2-0.49,3.81-1.75,3.65c-1.27-0.16-4.88-2.09-9.03-2.81
					C78.88,371.63,82.69,369,85.16,368.39z"/>
			</g>
		</g>
		<g>
			<path class="st0" d="M126.54,301.55c0,0,0,35.12,0,65.58c-5.29,1.63-8.93-4.48-8.93-4.48s0-31.19,0-60.78
				C119.52,296.63,126.54,301.55,126.54,301.55z"/>
			<g>
				<g>
					<path class="st4" d="M116.8,371.58c-0.94,2.38-0.7,6.9,4.94,11.28c5.64,4.38,11.99,7.26,20.03,4.1
						c6.77-2.66,2.23-10.01,2.23-10.01L116.8,371.58z"/>
					<path class="st5" d="M117.13,361.63c-1.59,1.75-2.12,10.58,2.15,13.98c4.25,3.4,11.86,9.58,21.58,6.41
						c7.62-2.48,2.17-8.79-2.03-11.19c-4.19-2.41-12.3-9.27-12.3-9.27S125.57,365.94,117.13,361.63z"/>
					<path class="st4" d="M120.8,363.12c-0.51-0.36-2.02-4.27-1.31-5.58c1.34-2.46,9.17-2.54,9.54-1.19
						c0.63,2.32-1.39,5.93-1.39,5.93S124.46,364.87,120.8,363.12z"/>
				</g>
				<path class="st4" d="M130.24,363.86c-3.09-0.77-7.27,0.9-8.65,3.1c-1.37,2.2,0.49,3.81,1.75,3.65c1.27-0.16,4.88-2.09,9.03-2.81
					C136.51,367.1,132.71,364.46,130.24,363.86z"/>
				<path class="st4" d="M135.99,368.39c-3.09-0.77-7.27,0.9-8.66,3.1c-1.37,2.2,0.49,3.81,1.75,3.65c1.27-0.16,4.88-2.09,9.03-2.81
					C142.27,371.63,138.47,369,135.99,368.39z"/>
			</g>
		</g>
		<g>
			<path class="st6" d="M71.85,298.34c13.2,4.64,28.21,4.88,33.6,4.46c1.21-3.55,1.69-8.63,4.23-13.89
				c1.78,3.38,3.05,9.26,4.68,14.57c7.37-0.95,22.95-2.29,33.38-5.36c-0.6-19.18-2.26-30.69-3.67-44.85
				c-14.86,4.81-50.52,6.33-66.05,4.68C70.61,274.02,73.21,290.53,71.85,298.34z"/>
			<path class="st7" d="M112.83,263.48c0.07-0.02,17.15-1.83,32.21-6.56c-0.33-3.49-0.66-6.82-0.97-9.98
				c-14.86,4.81-50.34,7.89-66.8,3.32c0.34,3.15-0.75,7.84-0.36,11.32C92.63,263.12,112.76,263.47,112.83,263.48z"/>
			<path class="st7" d="M132.53,265.57c0,0,4.08,7.62,10.24,10.85c-0.74,2.01-2.33,5.4-2.33,5.4s-11.77-6.39-14.13-14.31
				C130.15,267.1,132.53,265.57,132.53,265.57z"/>
			<path class="st7" d="M86.28,264.68c0,0-4.09,7.62-10.24,10.85c0.74,2.01,2.32,5.39,2.32,5.39s11.77-6.39,14.13-14.31
				C88.66,266.21,86.28,264.68,86.28,264.68z"/>
			<path class="st7" d="M106.59,299.17c0,0-15.56,1.81-34.78-2.49c-0.33,4.92-0.8,12.21-0.49,13.14c0,0,22.73,4.45,34.36,1.21
				C105.75,308.91,105.98,304.23,106.59,299.17z"/>
			<path class="st7" d="M113.05,299.17c0,0,15.56,1.81,34.78-2.49c0.33,4.92,0.8,12.21,0.48,13.14c0,0-22.73,4.45-34.36,1.21
				C113.88,308.91,113.65,304.23,113.05,299.17z"/>
			<path class="st6" d="M112.1,258.73c-0.04,2.04-1.73,3.66-3.76,3.62l0,0c-2.04-0.04-3.66-1.72-3.62-3.76l0,0
				c0.04-2.04,1.72-3.66,3.76-3.62l0,0C110.52,255.01,112.14,256.69,112.1,258.73L112.1,258.73z"/>
		</g>
		<path class="st3" d="M174.37,195.79c-1.74,16.55-1.73,16.52-5.86,25.64c-2.7-0.18-6.77-1.6-6.77-1.6
			c2.15-3.99,4.78-13.23,5.12-25.45C170.11,194.79,174.37,195.79,174.37,195.79z"/>
		<g>
			<path class="st8" d="M211.43,78.23C204.51,47.26,190.89,41,190.89,41s2.8-7.81-11.73-19.98c-17.9-15-41.48-15.04-48.12-6.83
				c-3.64-9.91-35.57-16.78-53-6.88c-14.88,8.46-17.17,17.46-17.17,17.46s-21.27,8.14-29.6,32.84c-3.05,9.06-2.76,19.14,8.37,20.99
				c-11.56,1.94-7.32,24.93,10.64,27.63c0,0,42.48,5.24,66.74,7.31c23.63,5.85,65.54,14.55,65.54,14.55
				c17.87,3.22,29.28-17.18,18.96-22.74C211.34,103.78,213.51,87.56,211.43,78.23z"/>
			<path class="st0" d="M51.03,103.96c-6.16,37.33,18.86,66.99,54.82,72.92c35.94,5.94,69.18-14.11,75.34-51.44
				c6.16-37.33-18.2-71.05-54.15-76.99C91.1,42.52,57.19,66.63,51.03,103.96z"/>
			<g>
				<g>
					<path class="st0" d="M53.58,104.67c0,0,0.38-7.73-8.55-10.56c-9.42-2.98-15.7,8.93-11.98,17.47
						c3.72,8.53,14.42,10.73,18.9,5.47L53.58,104.67z"/>
					<path class="st9" d="M42.51,97.04c6.48,0.16,9.3,12.19-0.33,16.19c5.16-7.05,2.43-10.38-2.82-7.58
						c0.57-2.52,2.45-3.81,6.17-2.77C45.9,99.48,42.51,97.04,42.51,97.04z"/>
				</g>
				<g>
					<path class="st0" d="M178.94,125.39c0,0,2.13-7.44,11.5-7.25c9.88,0.21,11.99,13.5,5.73,20.39c-6.27,6.88-17.1,5.52-19.65-0.9
						L178.94,125.39z"/>
					<path class="st9" d="M191.88,121.73c-6.19-1.93-12.73,8.55-4.88,15.44c-2.62-8.33,1.04-10.61,5.1-6.27
						c0.28-2.57-1.09-4.4-4.94-4.6C187.88,122.94,191.88,121.73,191.88,121.73z"/>
				</g>
			</g>
			<path class="st10" d="M112.99,111.12c-0.01,4.01,9.38,10.19,4.84,14.31c-2.81,2.56-8.01,0.93-7.04-4.99
				C111.37,117.02,112.99,111.12,112.99,111.12z"/>
			<g>
				<g>
					<path class="st8" d="M149.64,96.26c2.96-6.11,14.89-3.4,16.98,8.27C162.24,97.83,149.64,96.26,149.64,96.26z"/>
				</g>
				<g>
					<path class="st8" d="M90.29,86.45c-0.83-6.74-13-8.02-18.74,2.37C77.86,83.88,90.29,86.45,90.29,86.45z"/>
				</g>
			</g>
			<path class="st8" d="M82.25,54.04C66.7,65.87,70.29,72.37,76.89,71.95c10.51-0.67,18.73-14.11,18.73-14.11
				s-9.13,16.49,7.94,14.91c17.07-1.58,21.46-16.06,21.46-16.06s1.46,25.04,19.44,25.21c10.15,0.1,4.13-20.12,4.13-20.12
				s8.13,24.96,18.65,20.29c16.41-7.29-19.97-38.91-42.1-40.56C103,39.86,82.25,54.04,82.25,54.04z"/>
			<g>
				<path class="st10" d="M81.42,126.98c-0.63,3.84-6.96,5.99-14.13,4.81c-7.17-1.19-12.47-5.26-11.83-9.1
					c0.63-3.84,6.96-5.99,14.13-4.81C76.76,119.07,82.06,123.14,81.42,126.98z"/>
				<path class="st10" d="M170.82,141.75c-0.63,3.84-6.96,5.99-14.13,4.81c-7.17-1.18-12.47-5.26-11.83-9.09
					c0.63-3.84,6.96-5.99,14.13-4.81C166.15,133.84,171.45,137.91,170.82,141.75z"/>
			</g>
			<path class="st11" d="M85.64,101.33c8.13,1.67,9.74,11.89,9.83,11.45c1.34-6.51-2.81-12.88-9.26-14.21
				c-6.44-1.32-12.77,2.9-14.11,9.41C72.01,108.42,76.95,99.54,85.64,101.33z"/>
			<path class="st11" d="M148.96,111.79c8.13,1.67,9.73,11.88,9.83,11.45c1.33-6.51-2.82-12.88-9.26-14.21
				c-6.44-1.33-12.77,2.9-14.11,9.41C135.33,118.88,140.27,110.01,148.96,111.79z"/>
			<path class="st12" d="M114.1,129.93c-14.46-2.77-28.86,4.1-34.25,16.34c-0.16,0.36,0.01,0.78,0.36,0.93
				c0.36,0.16,0.78,0,0.94-0.36c5.13-11.64,18.88-18.16,32.69-15.52c13.22,2.53,23.31,12.79,24.54,24.94
				c0.04,0.39,0.39,0.67,0.78,0.64c0.39-0.04,0.67-0.39,0.63-0.78C138.5,143.35,127.94,132.58,114.1,129.93z"/>
		</g>
	</g>
</g>
</svg>
