<?xml version="1.0" encoding="utf-8"?>
<!-- Generator: Adobe Illustrator 25.0.1, SVG Export Plug-In . SVG Version: 6.00 Build 0)  -->
<svg version="1.1" id="Layer_1" xmlns="http://www.w3.org/2000/svg" xmlns:xlink="http://www.w3.org/1999/xlink" x="0px" y="0px"
	 viewBox="0 0 238 391" style="enable-background:new 0 0 238 391;" xml:space="preserve">
<style type="text/css">
	.st0{fill:#F37521;}
	.st1{fill:#FBC6A4;}
	.st2{fill:#CE7754;}
	.st3{fill:#DEDEDD;}
	.st4{fill:#EE5F9D;}
	.st5{fill:#EEAD86;}
	.st6{fill:#F5ABC6;}
	.st7{fill:#FFFFFF;}
	.st8{fill:#D48565;}
	.st9{fill:#F26E54;}
	.st10{fill:#231F20;}
	.st11{fill:#744431;}
	.st12{fill:#592324;}
	.st13{fill:#EC756C;}
</style>
<g>
	<g>
		<g>
			<path class="st0" d="M186.6,125.67c-4.35,13.92-5.65,26.25,1.63,37.18c7.28,10.93-8.42,13.26-14.8,1.08
				c22.33,40.53,4.37,67.57-23.26,42.54c2.54,38.02-74.31,39.49-85.24-17.65c-9.3,18.69-50.59,9.21-13.92-43
				c-12.78,10.11-21.53-0.36-4.31-16.37c13.69-12.73,8.01-27.95,8.01-27.95L186.6,125.67z"/>
		</g>
		<g>
			<g>
				<g>
					<g>
						<g>
							<path class="st1" d="M156.62,200.56c0,0,27.95,9.08,54.79-18.17c-4.76-1.41-9.28-4.56-8.72-6.21
								c0.65-1.87,5.91-0.14,8.1,0.75c-1.85-6.06-1.82-15.54,1.62-15.45c2.62,0.07,2.83,8.53,2.98,11.33
								c1.56-6.29,1.75-12.34,5.01-11.3c2.41,0.77,1.3,6.42-0.35,11.93c2.67-5.48,5.1-10.58,7.27-8.96c1.4,1.04,0.48,6.41-3.22,11
								c2.82-2.11,6.48-5.27,7.62-3.99c1.04,1.16-0.4,4.96-10.4,13.3c-21.63,32.03-53.68,32.81-67.24,24.39
								C155.24,203.83,156.62,200.56,156.62,200.56z"/>
						</g>
					</g>
				</g>
			</g>
			<g>
				<g>
					<path class="st1" d="M54.95,178.35c0,0-28.12-5.59-37.1-42.56c7.27,2.67,8.43-2.39,4.52-4.09c6.4-6.15,6.56-13.99,3.53-15.6
						c-3.02-1.61-4.82,5.67-5.59,8.72c0.36-3.36-3.12-5.82-5.66-2.03c-3.66-4.54-10.44-3.04-6.89,9.03
						c2.1,38.39,29.06,55.42,44.93,55.17C54.46,181.85,54.95,178.35,54.95,178.35z"/>
					<path class="st2" d="M12.07,130.65c-0.23-0.07-0.46-0.2-0.66-0.4c-1.44-1.35-1.82-5.27-1.29-7.01c0.04-0.15,0.2-0.23,0.35-0.19
						c0.15,0.05,0.24,0.2,0.19,0.36c-0.52,1.72-0.02,5.34,1.14,6.43c0.31,0.29,0.64,0.37,1,0.23c1.66-0.61,1.65-5.01,1.51-6.65
						c-0.01-0.16,0.1-0.3,0.26-0.31c0.16-0.01,0.29,0.1,0.31,0.26c0.06,0.65,0.48,6.37-1.88,7.24
						C12.68,130.72,12.36,130.74,12.07,130.65z"/>
					<path class="st2" d="M16.65,130.69c-1.95-0.58-2.32-3.62-2.34-3.77c-0.02-0.16,0.1-0.3,0.25-0.32c0.16-0.02,0.3,0.09,0.32,0.25
						c0,0.03,0.41,3.34,2.42,3.36c1.68,0.02,2.45-3.23,2.61-4.48c0.02-0.16,0.16-0.27,0.32-0.25c0.16,0.02,0.27,0.16,0.25,0.31
						c-0.03,0.21-0.65,5.02-3.18,4.99C17.06,130.79,16.84,130.75,16.65,130.69z"/>
					<path class="st2" d="M17.57,136c-0.65-0.2-2.58-0.86-3.22-2c-0.23-0.41-0.28-0.85-0.15-1.29c0.69-2.3,5.9-1.82,7.46-1.35
						c0.15,0.04,0.24,0.2,0.19,0.35c-0.05,0.15-0.2,0.23-0.35,0.19c-1.71-0.51-6.26-0.68-6.75,0.97c-0.09,0.29-0.05,0.57,0.1,0.84
						c0.54,0.96,2.41,1.62,3.09,1.79c0.16,0.04,0.24,0.2,0.2,0.35c-0.04,0.15-0.19,0.24-0.35,0.2
						C17.77,136.05,17.69,136.03,17.57,136z"/>
				</g>
			</g>
			<g>
				<g>
					<path class="st1" d="M83.81,285.45c0,0-1.53,71.64-1.97,79.64c5.29,1.36,9.31,1.51,9.31,1.51l3.7-80.25L83.81,285.45z"/>
					<g>
						<g>
							<path class="st3" d="M92.07,369.1c1.04,2.3,1.36,6.44-4,11.02c-5.36,4.58-10.67,8.46-18.73,5.66
								c-6.63-2.3-3.84-10.1-3.84-10.1L92.07,369.1z"/>
							<path class="st4" d="M91.19,359.48c1.29,2.08,2.67,10.16-1.37,13.72c-4.03,3.55-12.56,10.69-20.48,7.76
								c-7.22-2.66-3.05-8.98,0.96-11.55c4.02-2.57,11.69-9.72,11.69-9.72S83.08,364.13,91.19,359.48z"/>
						</g>
						<path class="st3" d="M77.55,363.39c3.01-0.91,7.21,0.54,8.68,2.64c1.46,2.11-0.3,3.78-1.56,3.68
							c-1.26-0.1-4.92-1.83-9.04-2.34C71.51,366.87,75.14,364.09,77.55,363.39z"/>
						<path class="st3" d="M70.95,368.81c3.01-0.91,7.21,0.54,8.68,2.65c1.45,2.11-0.3,3.78-1.55,3.68
							c-1.26-0.1-4.92-1.83-9.04-2.34C64.92,372.3,68.54,369.52,70.95,368.81z"/>
					</g>
				</g>
				<g>
					<path class="st1" d="M138.21,266.22c0,0,38.63,58.28,42.95,65.03c-3.94,3.78-7.49,6.32-7.49,6.32l-44.67-65.56L138.21,266.22z"
						/>
					<g>
						<g>
							<path class="st3" d="M173.13,340.38c0.23,2.52,2.44,6.4,9.36,7.76c6.92,1.37,13.8,1.1,19.5-5.25
								c4.79-5.34-2.47-9.82-2.47-9.82L173.13,340.38z"/>
							<path class="st4" d="M169.18,331.56c-0.11,2.45,2.66,10.17,7.93,11.27c5.25,1.12,14.71,3.2,21.89-3.91
								c5.63-5.57-1.99-8.72-6.75-8.98c-4.76-0.27-14.89-3.46-14.89-3.46S178.53,331.63,169.18,331.56z"/>
						</g>
						<path class="st3" d="M182.98,328.26c-3.07,0.69-6.02,4.02-6.26,6.57c-0.23,2.55,2.12,3.15,3.16,2.44
							c1.05-0.71,3.38-4.01,6.72-6.48C189.95,328.34,185.43,327.7,182.98,328.26z"/>
						<path class="st3" d="M191.51,329.82c-3.07,0.69-6.02,4.02-6.26,6.57c-0.23,2.55,2.12,3.15,3.16,2.44
							c1.05-0.71,3.38-4.01,6.73-6.48C198.48,329.89,193.96,329.25,191.51,329.82z"/>
					</g>
				</g>
				<g>
					<g>
						<g>
							<g>
								<path class="st1" d="M122.19,185.93c0,0-5.25-1.49-10.27-3.7c0.2-5.38,2.01-11.18,2.01-11.18l-9.62-2.25
									c0,0-1.9,8.6-2.22,12.1c-7.31,0.91-13.37,1.08-13.37,1.08s-5,17.21,13.47,20.55C108.66,203.7,119.33,197.9,122.19,185.93z"
									/>
							</g>
						</g>
					</g>
					<path class="st5" d="M107.02,180.37c-1.59-0.3-3.1,0.1-4.06,0.93l0.84-4.5l7.51,1.4l-0.84,4.5
						C109.87,181.57,108.61,180.66,107.02,180.37z"/>
				</g>
				<g>
					<g>
						<path class="st6" d="M89.36,182.04c-12.43,26.54,33.18,30.77,35.62,4.19c3.95,0.34,24.97,6.5,33.54,9.63
							c-0.17,4.09-7.21,20.99-10.07,21.36c-2.04-0.14-6.94-1.77-12.41-3.92c-0.83,10.75,22.81,62.42,23.9,64.77
							c0,0-59.76,31.93-103.97,6.96c-0.01-0.01,13.19-69.8,15.7-79.14c-0.63-0.37-11.12-4.04-18.61-7.45
							c-3.39-6.73,5.64-17.78,8.3-20.96C68.44,178.58,86.94,181.74,89.36,182.04z"/>
						<path class="st7" d="M91.53,181.19c-1.62,7.83-0.65,18.22,11.35,18.41c10.57,0.17,14.38-7.02,15.97-15.56
							c2.69,1.06,7.55,1.95,7.55,1.95s-1.96,22.55-24.84,20.86c-21.75-1.62-17.6-25.68-17.6-25.68L91.53,181.19z"/>
					</g>
					<path class="st7" d="M154.58,220.08c7.6-14.03,7.59-14,9.28-23.45c-2.23-1.33-6.22-2.41-6.22-2.41
						c-0.46,4.32-3.39,13.05-9.76,22.9C150.67,218.55,154.58,220.08,154.58,220.08z"/>
					<path class="st7" d="M56.06,174.73c-6.39,14.62-6.39,14.59-7.28,24.15c2.34,1.14,6.4,1.88,6.4,1.88
						c0.1-4.34,2.29-13.29,7.8-23.63C60.08,175.93,56.06,174.73,56.06,174.73z"/>
				</g>
			</g>
		</g>
		<g>
			<g>
				<path class="st0" d="M59.23,34.99c31.41-34.28,88.35-39.94,120.45-5.94c23.45,24.84,9.89,33.86,9.89,33.86
					s23.05,0.28,23.04,28.73c-0.01,9.37-12.43,41.55-29.95,38.45c0,0-41.09-8.4-64.26-14.06c-23.77-1.95-70.09-7.72-70.09-7.72
					C31.3,71.99,48.15,47.08,59.23,34.99z"/>
				<path class="st1" d="M182.65,127.74c-5.94,36.59-38.44,56.32-73.68,50.6c-35.23-5.72-59.84-34.71-53.9-71.31
					c5.94-36.59,39.09-60.3,74.33-54.58C164.64,58.17,188.59,91.15,182.65,127.74z"/>
				<g>
					<g>
						<path class="st1" d="M180.06,127.6c0,0,2.07-7.29,11.24-7.13c9.68,0.18,11.79,13.19,5.67,19.96
							c-6.11,6.76-16.74,5.46-19.25-0.83L180.06,127.6z"/>
						<path class="st8" d="M192.73,123.98c-6.07-1.87-12.45,8.41-4.75,15.14c-2.59-8.16,0.99-10.39,4.98-6.15
							c0.27-2.52-1.08-4.31-4.86-4.49C188.81,125.18,192.73,123.98,192.73,123.98z"/>
					</g>
					<g>
						<path class="st1" d="M57.17,107.69c0,0,0.35-7.57-8.41-10.32c-9.24-2.89-15.35,8.79-11.69,17.15
							c3.67,8.35,14.16,10.47,18.53,5.3L57.17,107.69z"/>
						<path class="st8" d="M46.3,100.24c6.35,0.14,9.15,11.92-0.29,15.87c5.04-6.92,2.35-10.18-2.78-7.42
							c0.55-2.48,2.39-3.74,6.03-2.73C49.64,102.62,46.3,100.24,46.3,100.24z"/>
					</g>
				</g>
				<path class="st9" d="M117.59,108.85c-2.19,3.32,2.25,13.56-3.75,14.52c-3.72,0.6-7.16-3.58-3.13-7.97
					C113.04,112.86,117.59,108.85,117.59,108.85z"/>
				<g>
					<path class="st9" d="M88.22,127.77c-0.81,3.78-7.18,5.6-14.23,4.09c-7.05-1.52-12.1-5.81-11.29-9.58
						c0.81-3.78,7.18-5.61,14.23-4.09C83.98,119.71,89.04,124,88.22,127.77z"/>
					<path class="st9" d="M160.72,143.37c-0.81,3.78-7.18,5.6-14.24,4.09c-7.05-1.51-12.1-5.81-11.29-9.58
						c0.81-3.77,7.18-5.61,14.23-4.09C156.48,135.31,161.53,139.6,160.72,143.37z"/>
				</g>
				<g>
					<g>
						<g>
							<path class="st7" d="M94.37,101.99c1.02,6.68-3.26,12.89-9.58,13.86c-6.31,0.97-12.26-3.67-13.29-10.36
								c-1.02-6.69,3.27-12.89,9.58-13.87C87.4,90.67,93.35,95.31,94.37,101.99z"/>
							<path class="st10" d="M87.08,100.55c0.63,4.12-2.01,7.95-5.91,8.55c-3.89,0.59-7.56-2.26-8.2-6.39
								c-0.63-4.13,2.02-7.95,5.91-8.55C82.78,93.57,86.44,96.43,87.08,100.55z"/>
							<path class="st7" d="M79.37,99.39c-0.28,1.19-1.42,1.93-2.53,1.67c-1.12-0.27-1.8-1.44-1.52-2.63
								c0.28-1.18,1.42-1.93,2.53-1.68C78.97,97.04,79.65,98.21,79.37,99.39z"/>
							<path class="st7" d="M84.25,105.75c-0.17,0.74-0.88,1.2-1.58,1.03c-0.69-0.16-1.11-0.89-0.94-1.63
								c0.18-0.73,0.88-1.19,1.57-1.03C84,104.29,84.43,105.02,84.25,105.75z"/>
						</g>
						<path class="st11" d="M71.91,96.03c0,0,11.32-8.53,22.1,1.66C84.73,81.87,71.91,96.03,71.91,96.03z"/>
					</g>
					<g>
						<g>
							<path class="st7" d="M140.19,111.85c-3.68,5.67-2.33,13.09,3.03,16.57c5.36,3.47,12.69,1.7,16.37-3.98
								c3.69-5.68,2.33-13.1-3.02-16.58C151.21,104.4,143.88,106.18,140.19,111.85z"/>
							<path class="st10" d="M141,112.15c-2.27,3.5-1.44,8.08,1.87,10.22c3.3,2.14,7.83,1.05,10.1-2.45
								c2.27-3.51,1.43-8.08-1.87-10.22C147.79,107.56,143.27,108.66,141,112.15z"/>
							<path class="st7" d="M148.5,114.27c-0.23,1.2,0.5,2.34,1.62,2.56c1.13,0.22,2.23-0.57,2.46-1.77
								c0.23-1.19-0.5-2.34-1.62-2.56C149.84,112.29,148.73,113.08,148.5,114.27z"/>
							<path class="st7" d="M141.44,118.06c-0.15,0.74,0.3,1.45,1.01,1.59c0.7,0.14,1.39-0.36,1.53-1.1
								c0.13-0.74-0.3-1.45-1.01-1.59C142.27,116.83,141.58,117.32,141.44,118.06z"/>
						</g>
						<path class="st11" d="M163.12,115.66c0,0-6.81-12.43-20.82-7.58C157.26,97.48,163.12,115.66,163.12,115.66z"/>
					</g>
				</g>
				<g>
					<g>
						<path class="st0" d="M150.21,95.78c3.22-5.92,14.92-2.66,16.44,9.01C162.62,97.94,150.21,95.78,150.21,95.78z"/>
					</g>
					<g>
						<path class="st0" d="M91.85,83.22c-0.5-6.72-12.5-8.57-18.69,1.45C79.65,80.08,91.85,83.22,91.85,83.22z"/>
					</g>
				</g>
				<g>
					<g>
						<g>
							<g>
								<path class="st12" d="M129.75,135.86c-4.66-5.62-7.23,1.03-18.59-1.54c-11.6-2.62-12.54-10.38-18.65-5.88
									c-4.99,3.66-3.53,31.06,15.51,35.03C127.21,167.46,134.19,141.21,129.75,135.86z"/>
							</g>
						</g>
					</g>
					<path class="st13" d="M95.44,155.01c2.84,4.06,6.94,7.29,12.59,8.47c5.29,1.1,9.64-0.1,13.09-2.52
						c-3.09-2.16-7.32-4.12-12.91-5.37C102.88,154.38,98.66,154.36,95.44,155.01z"/>
					<path class="st7" d="M128.01,134.24c-3.74-2.42-6.97,2.31-16.85,0.08c-10-2.26-12.08-8.33-16.38-7.08
						c2.61,6.49,7.51,12.36,15.57,14.04C118.33,142.94,124.2,139.37,128.01,134.24z"/>
				</g>
			</g>
			<path class="st0" d="M184.41,121.71c0,0-19.11-20.26-11.84-41.9C130.63,92.4,83.95,32.34,55.43,101.22
				c-0.68-46.53,85.85-75.29,128.52-23.13C194.89,93.97,184.41,121.71,184.41,121.71z"/>
			<path class="st6" d="M133.21,31.61c-28.36-4.6-55.54,7.86-71.09,29.83c11.92-27.76,41.55-44.96,72.73-39.9
				c31.17,5.05,53.86,30.72,56.4,60.83C183.42,56.61,161.57,36.2,133.21,31.61z"/>
		</g>
	</g>
</g>
</svg>
